<svg width="108" height="110" viewBox="0 0 108 110" fill="none" xmlns="http://www.w3.org/2000/svg">
<rect x="-11" y="-14" width="141" height="140" fill="white"/>
<path d="M29.6 78.7C28.4 76.9 27.1 75.2 26.1 73.3C23.2 68.1 21.7 62.6 21.8 56.6C21.9 47.6 21.8 38.7 21.8 29.7C21.8 23.5 21.8 17.4 21.8 11.2C21.8 6.40001 25.2 2.50001 29.9 1.80001C31.2 1.60001 32.6 1.7 33.9 1.7C48.4 1.7 62.8 1.7 77.3 1.7C78.2 1.7 79.1 1.70001 80 1.80001C84.7 2.50001 88 6.50002 88 11.2C88 26.4 88 41.6 88 56.8C88 64.8 85.4 71.8 80.5 78.1C80.4 78.2 80.3 78.3 80.2 78.5C80.2 78.5 80.2 78.5 80.1 78.6C80.4 78.7 80.6 78.9 80.9 79C84.5 80.8 88.2 82.4 91.7 84.3C96.3 86.7 100.3 89.8 103.3 94.1C106.2 98.3 107.7 102.9 108 108C108 108.8 108.1 109.6 108.1 110.4C72.5 110.4 37 110.4 1.29999 110.4C1.59999 108.2 1.69999 106.1 2.09999 104C3.39999 96.9 7.39998 91.4 13.2 87.2C17 84.4 21.2 82.4 25.5 80.4C27 80 28.3 79.3 29.6 78.7ZM26.6 35C26.6 41.6 26.6 48.2 26.6 54.8C26.6 58.2 26.8 61.6 27.8 64.9C29.4 70.1 32 74.7 36.1 78.3C38.5 80.4 41.1 81.9 44.1 82.9C49 84.6 54 84.9 59.1 84.4C65.1 83.8 70.5 81.9 74.8 77.5C76.4 75.9 77.9 74.2 79.1 72.2C81.9 67.4 83.5 62.3 83.4 56.7C83.3 52.7 83.4 48.8 83.4 44.8C83.4 33.7 83.4 22.5 83.4 11.4C83.4 8.5 81.3 6.5 78.5 6.5C62.9 6.5 47.3 6.5 31.7 6.5C28.5 6.5 26.6 8.50001 26.6 11.6C26.6 19.4 26.6 27.2 26.6 35ZM6.89998 105.8C39 105.8 71 105.8 103 105.8C102.4 102.3 101.2 99.2 99.2 96.4C97.1 93.5 94.3 91.2 91.2 89.6C86.5 87.1 81.7 84.7 76.9 82.4C76.7 82.3 76.4 82.4 76.2 82.5C75.6 82.9 75 83.4 74.3 83.9C68.9 87.5 62.9 89.2 56.5 89.4C48.1 89.7 40.3 87.9 33.6 82.5C33.5 82.4 33.1 82.4 32.9 82.5C31.6 83.1 30.4 83.7 29.1 84.3C25.3 86.1 21.4 87.9 17.8 90.2C14.4 92.3 11.5 94.9 9.49998 98.4C8.19998 100.6 7.39998 103.1 6.89998 105.8Z" fill="black" stroke="black" stroke-width="1.8346" stroke-miterlimit="10"/>
<path d="M33.8 23C48 23 62.1 23 76.3 23C76.3 30.9 76.3 38.7 76.3 46.6C62.1 46.6 48 46.6 33.8 46.6C33.8 38.8 33.8 30.9 33.8 23ZM38.5 41.9C49.5 41.9 60.5 41.9 71.5 41.9C71.5 37.2 71.5 32.5 71.5 27.8C60.5 27.8 49.5 27.8 38.5 27.8C38.5 32.5 38.5 37.2 38.5 41.9Z" fill="black"/>
<path d="M38.5 41.9C38.5 37.2 38.5 32.5 38.5 27.8C49.5 27.8 60.5 27.8 71.5 27.8C71.5 32.5 71.5 37.2 71.5 41.9C60.5 41.9 49.5 41.9 38.5 41.9Z" fill="#00EBFE"/>
</svg>
