<svg width="379" height="103" viewBox="0 0 379 103" fill="none" xmlns="http://www.w3.org/2000/svg">
<path d="M118.844 4.2733H126.018V45.2023H118.844V4.2733Z" fill="#00E8FE"/>
<path d="M136.044 4.2733H167.131V9.23995L144.505 38.4881H167.775V45.2023H134.94V40.3276L157.566 11.0795H136.136V4.2733H136.044Z" fill="#00E8FE"/>
<path d="M192.057 3.62948C204.197 3.62948 213.395 11.9992 213.395 24.6918C213.395 36.9245 204.197 45.7541 192.057 45.7541C179.916 45.7541 170.81 37.3844 170.81 24.6918C170.81 12.919 179.456 3.62948 192.057 3.62948ZM192.057 39.1319C200.61 39.1319 205.761 32.7856 205.761 24.7838C205.761 16.322 199.782 10.4356 192.057 10.4356C184.239 10.4356 178.352 16.322 178.352 24.7838C178.352 32.9695 184.423 39.1319 192.057 39.1319Z" fill="#00E8FE"/>
<path d="M260.578 45.2023H253.864L244.022 15.5862L234.273 45.2023H227.467L215.234 4.2733H223.328L231.606 33.4294L240.711 4.2733H247.885L257.267 33.5214L265.453 4.2733H272.351L260.578 45.2023Z" fill="#00E8FE"/>
<path d="M278.237 4.2733H301.875V10.9875H285.411V21.1967H300.127V27.9109H285.411V38.4881H302.519V45.2023H278.237V4.2733Z" fill="#00E8FE"/>
<path d="M311.808 4.2733H318.982V38.4881H337.377V45.2023H311.808V4.2733Z" fill="#00E8FE"/>
<path d="M343.816 4.2733H344.551C347.035 4.2733 352.829 4.08934 355.864 4.08934C372.236 4.08934 378.858 13.4708 378.858 24.3239C378.858 35.8208 371.04 45.2942 355.404 45.2942C352.921 45.2942 348.414 45.2023 344.643 45.2023H343.816V4.2733ZM350.99 10.9875V38.4881C353.013 38.5801 354.577 38.58 355.588 38.58C365.43 38.58 371.224 32.9695 371.224 24.3239C371.224 16.0461 365.522 10.8035 355.772 10.8035C354.025 10.8955 352.645 10.8955 350.99 10.9875Z" fill="#00E8FE"/>
<path d="M27.329 72.5189C26.2253 70.8633 25.0296 69.2997 24.1098 67.5522C21.4426 62.7695 20.0629 57.7109 20.1549 52.1924C20.2469 43.9146 20.1549 35.7288 20.1549 27.4511C20.1549 21.7486 20.1549 16.1381 20.1549 10.4356C20.1549 6.02084 23.282 2.4338 27.6049 1.78997C28.8006 1.60602 30.0882 1.69799 31.2839 1.69799C44.6203 1.69799 57.8647 1.69799 71.2011 1.69799C72.0289 1.69799 72.8567 1.698 73.6844 1.78997C78.0073 2.4338 81.0425 6.11282 81.0425 10.4356C81.0425 24.4159 81.0425 38.3961 81.0425 52.3763C81.0425 59.7343 78.6511 66.1726 74.1443 71.967C74.0524 72.059 73.9604 72.151 73.8684 72.3349C73.8684 72.3349 73.8684 72.3349 73.7764 72.4269C74.0524 72.5189 74.2363 72.7028 74.5122 72.7948C77.8233 74.4504 81.2264 75.922 84.4456 77.6695C88.6764 79.8769 92.3554 82.7281 95.1147 86.6831C97.7819 90.546 99.1616 94.7769 99.4375 99.4676C99.4375 100.203 99.5295 100.939 99.5295 101.675C66.7863 101.675 34.1351 101.675 1.29999 101.675C1.57591 99.6516 1.66789 97.7201 2.03579 95.7886C3.23147 89.2584 6.91047 84.1997 12.245 80.3368C15.7401 77.7615 19.603 75.922 23.558 74.0825C24.9376 73.7146 26.1333 73.0707 27.329 72.5189ZM24.5697 32.3257C24.5697 38.3961 24.5697 44.4664 24.5697 50.5368C24.5697 53.664 24.7537 56.7911 25.6734 59.8263C27.145 64.609 29.5364 68.8399 33.3074 72.151C35.5148 74.0824 37.9061 75.4621 40.6654 76.3818C45.1721 77.9454 49.7709 78.2213 54.4616 77.7615C59.9802 77.2096 64.9468 75.4621 68.9017 71.4152C70.3733 69.9436 71.753 68.38 72.8567 66.5405C75.432 62.1257 76.9036 57.435 76.8116 52.2844C76.7196 48.6054 76.8116 45.0183 76.8116 41.3393C76.8116 31.13 76.8116 20.8288 76.8116 10.6196C76.8116 7.9523 74.8801 6.11281 72.3048 6.11281C57.9567 6.11281 43.6086 6.11281 29.2605 6.11281C26.3172 6.11281 24.5697 7.95231 24.5697 10.8035C24.5697 17.9776 24.5697 25.1517 24.5697 32.3257ZM6.45059 97.4441C35.9746 97.4441 65.4067 97.4441 94.8387 97.4441C94.2869 94.225 93.1832 91.3738 91.3437 88.7985C89.4122 86.1312 86.8369 84.0158 83.9857 82.5442C79.6628 80.2448 75.248 78.0374 70.8332 75.922C70.6493 75.83 70.3734 75.922 70.1894 76.0139C69.6376 76.3818 69.0857 76.8417 68.4418 77.3016C63.4752 80.6127 57.9567 82.1763 52.0703 82.3602C44.3444 82.6361 37.1703 80.9806 31.008 76.0139C30.916 75.922 30.5481 75.922 30.3641 76.0139C29.1685 76.5658 28.0648 77.1176 26.8691 77.6695C23.374 79.325 19.787 80.9806 16.4759 83.096C13.3487 85.0275 10.6815 87.4189 8.84195 90.638C7.64627 92.6614 6.91047 94.9608 6.45059 97.4441Z" fill="#00E8FE" stroke="#00E8FE" stroke-opacity="0.67" stroke-width="1.8346" stroke-miterlimit="10"/>
<path d="M31.1919 21.2887C44.2524 21.2887 57.2209 21.2887 70.2814 21.2887C70.2814 28.5547 70.2814 35.7288 70.2814 42.9949C57.2209 42.9949 44.2524 42.9949 31.1919 42.9949C31.1919 35.8208 31.1919 28.5547 31.1919 21.2887ZM35.5148 38.672C45.632 38.672 55.7493 38.672 65.8666 38.672C65.8666 34.3492 65.8666 30.0263 65.8666 25.7035C55.7493 25.7035 45.632 25.7035 35.5148 25.7035C35.5148 30.0263 35.5148 34.3492 35.5148 38.672Z" fill="#00E8FE"/>
<path d="M35.5148 38.672C35.5148 34.3492 35.5148 30.0263 35.5148 25.7035C45.632 25.7035 55.7493 25.7035 65.8666 25.7035C65.8666 30.0263 65.8666 34.3492 65.8666 38.672C55.7493 38.672 45.632 38.672 35.5148 38.672Z" fill="#00E8FE"/>
<path d="M138.343 73.9905H154.99V90.9139C151.403 94.501 144.781 96.6164 139.631 96.6164C126.202 96.6164 118.292 88.2466 118.292 75.5541C118.292 63.7812 126.202 54.4917 138.711 54.4917C144.597 54.4917 148.552 56.0553 151.863 58.6306L148.828 64.3331C146.805 62.4016 143.126 61.2059 139.631 61.2059C131.721 61.2059 125.926 66.4485 125.926 75.5541C125.926 84.2917 131.445 89.9022 139.815 89.9022C142.942 89.9022 146.805 88.5226 148.276 87.051V80.6127H138.435V73.9905H138.343Z" fill="#00E8FE"/>
<path d="M163.82 96.0645V55.1356C166.119 55.1356 175.133 55.0436 176.237 55.0436C187.366 55.0436 191.045 60.5621 191.045 67.6442C191.045 74.6343 186.538 78.1294 183.135 79.325L195.919 96.0645H187.182L175.869 80.7047H170.81V96.0645H163.82ZM171.086 61.8498V73.9905H175.777C179.916 73.9905 183.595 71.875 183.595 67.6442C183.595 64.4251 181.847 61.6658 175.961 61.6658C174.581 61.6658 173.018 61.7578 171.086 61.8498Z" fill="#00E8FE"/>
<path d="M218.913 54.4918C231.054 54.4918 240.251 62.8615 240.251 75.5541C240.251 87.7868 231.054 96.6164 218.913 96.6164C206.773 96.6164 197.667 88.2466 197.667 75.5541C197.575 63.6893 206.313 54.4918 218.913 54.4918ZM218.913 89.9022C227.467 89.9022 232.618 83.5559 232.618 75.5541C232.618 67.0923 226.639 61.2059 218.913 61.2059C211.095 61.2059 205.209 67.0923 205.209 75.5541C205.209 83.7399 211.187 89.9022 218.913 89.9022Z" fill="#00E8FE"/>
<path d="M281.64 79.0491C281.64 91.5577 274.006 96.6164 265.361 96.6164C255.151 96.6164 247.977 90.638 247.977 78.5892V55.0436H255.151V77.1177C255.151 84.7516 258.279 89.9022 265.361 89.9022C271.523 89.9022 274.466 85.4874 274.466 77.5775V55.0436H281.64V79.0491Z" fill="#00E8FE"/>
<path d="M292.401 96.0645V55.1356C294.701 55.1356 301.139 55.0436 304.082 55.0436C316.131 55.0436 319.902 61.4819 319.902 68.196C319.902 75.1862 314.659 81.4405 304.91 81.4405C303.714 81.4405 301.323 81.4405 299.575 81.2565V96.0645H292.401ZM299.575 61.8498V74.4503C301.231 74.6343 303.071 74.7263 304.634 74.7263C308.865 74.7263 312.268 72.7028 312.268 68.1041C312.268 63.8732 309.601 61.7578 304.726 61.7578C303.254 61.6658 301.507 61.7578 299.575 61.8498Z" fill="#00E8FE"/>
</svg>
